<svg width="13" height="12" viewBox="0 0 13 12" fill="none" xmlns="http://www.w3.org/2000/svg">
<path d="M10.0991 11.6989H2.47952C1.4266 11.6989 0.566406 10.8387 0.566406 9.78583V2.16629C0.566406 1.11337 1.4266 0.253174 2.47952 0.253174H10.0991C11.152 0.253174 12.0122 1.11337 12.0122 2.16629V9.78583C12.0122 10.8434 11.1567 11.6989 10.0991 11.6989Z" fill="#BD1B2D"/>
<path d="M6.29329 8.91618C5.50831 8.91618 4.77032 8.61064 4.21566 8.05598C3.661 7.50132 3.35547 6.76334 3.35547 5.97835C3.35547 5.19337 3.661 4.45538 4.21566 3.90072C4.77032 3.34606 5.50831 3.04053 6.29329 3.04053C7.07828 3.04053 7.81626 3.34606 8.37092 3.90072C8.92559 4.45538 9.23112 5.19337 9.23112 5.97835C9.23112 6.76334 8.92559 7.50132 8.37092 8.05598C7.81156 8.61064 7.07828 8.91618 6.29329 8.91618ZM6.29329 3.6657C5.01945 3.6657 3.98064 4.69981 3.98064 5.97835C3.98064 7.25219 5.01475 8.29101 6.29329 8.29101C7.56713 8.29101 8.60595 7.25689 8.60595 5.97835C8.60125 4.70451 7.56713 3.6657 6.29329 3.6657Z" fill="white"/>
<path d="M9.80236 2.94407C10.1139 2.94407 10.3664 2.69153 10.3664 2.37999C10.3664 2.06846 10.1139 1.81592 9.80236 1.81592C9.49083 1.81592 9.23828 2.06846 9.23828 2.37999C9.23828 2.69153 9.49083 2.94407 9.80236 2.94407Z" fill="white"/>
</svg>
