<svg width="14" height="14" viewBox="0 0 14 14" fill="none" xmlns="http://www.w3.org/2000/svg">
<path d="M3.5637 4.69019H0.773438V13.5882H3.5637V4.69019Z" fill="#BD1B2D"/>
<path d="M11.1095 4.49741C11.0066 4.48455 10.8973 4.47812 10.788 4.47169C9.22575 4.4074 8.34496 5.3332 8.03636 5.73181C7.95278 5.84111 7.9142 5.9054 7.9142 5.9054V4.716H5.24609V13.614H7.9142H8.03636C8.03636 12.7075 8.03636 11.8074 8.03636 10.9009C8.03636 10.4123 8.03636 9.92364 8.03636 9.43502C8.03636 8.83067 7.99136 8.18776 8.29353 7.63485C8.55069 7.17195 9.01359 6.9405 9.53435 6.9405C11.0774 6.9405 11.1095 8.33563 11.1095 8.46421C11.1095 8.47064 11.1095 8.47707 11.1095 8.47707V13.6526H13.8998V7.84701C13.8998 5.86039 12.8904 4.69028 11.1095 4.49741Z" fill="#BD1B2D"/>
<path d="M2.16703 3.53962C3.06181 3.53962 3.78718 2.81426 3.78718 1.91947C3.78718 1.02468 3.06181 0.299316 2.16703 0.299316C1.27224 0.299316 0.546875 1.02468 0.546875 1.91947C0.546875 2.81426 1.27224 3.53962 2.16703 3.53962Z" fill="#BD1B2D"/>
</svg>
