<svg width="38" height="51" viewBox="0 0 38 51" fill="none" xmlns="http://www.w3.org/2000/svg">
<g clip-path="url(#clip0_1169_2376)">
<path d="M33.7856 50.5H4.21443C2.17608 50.5 0.5 48.8177 0.5 46.7583V12.4194L12.3428 0.5H33.7856C35.8239 0.5 37.5 2.18228 37.5 4.2417V46.7583C37.5 48.8177 35.8239 50.5 33.7856 50.5Z" fill="#BD1A2C" stroke="white"/>
<path d="M7.92027 11.7132H1.20162L11.6347 1.21263V7.97152C11.6347 10.0309 9.95862 11.7132 7.92027 11.7132Z" stroke="white"/>
<path d="M5.28912 23.4276H32.7091C33.9393 23.4276 34.9386 24.4333 34.9386 25.6715V37.5403C34.9386 38.7785 33.9393 39.7843 32.7091 39.7843H5.28912C4.05888 39.7843 3.05957 38.7785 3.05957 37.5403V25.6715C3.05957 24.4333 4.05888 23.4276 5.28912 23.4276Z" fill="#FFF9F9"/>
<path fill-rule="evenodd" clip-rule="evenodd" d="M14.5552 31.8958C14.9565 31.5181 15.1558 30.9937 15.1558 30.3228C15.1558 29.6518 14.9717 29.1676 14.6046 28.8148C14.2376 28.4606 13.6851 28.2849 12.9469 28.2849H9.55859V34.9255H11.6067V32.4616H12.7215C13.5435 32.4616 14.1552 32.2734 14.5552 31.8958ZM11.6053 31.1169V29.6352H12.1854C12.5662 29.6352 12.8259 29.7085 12.962 29.8538C13.1009 29.9976 13.1696 30.1747 13.1696 30.3836C13.1696 30.5925 13.0899 30.7738 12.9318 30.9107C12.7723 31.0477 12.4974 31.1169 12.1043 31.1169H11.6053Z" fill="#252323"/>
<path fill-rule="evenodd" clip-rule="evenodd" d="M16.2484 28.2863V34.9269H19.278C19.6409 34.9269 20.0464 34.866 20.4931 34.7457C20.8203 34.6571 21.1268 34.4814 21.41 34.2172C21.6959 33.9543 21.9185 33.6265 22.078 33.2349C22.2388 32.8434 22.3185 32.2928 22.3185 31.5831C22.3185 31.1307 22.2649 30.7018 22.1577 30.2965C22.0491 29.8911 21.8746 29.5369 21.6354 29.2312C21.3962 28.9268 21.0911 28.693 20.724 28.5298C20.3557 28.3679 19.8732 28.2849 19.2766 28.2849H16.2471L16.2484 28.2863ZM18.2869 29.7901H18.7955C19.3234 29.7901 19.7014 29.9202 19.9309 30.1803C20.1577 30.4403 20.2718 30.9204 20.2718 31.6246C20.2718 32.1558 20.221 32.5418 20.1192 32.7784C20.0161 33.015 19.8746 33.1824 19.6959 33.2764C19.5158 33.3719 19.2134 33.4189 18.7859 33.4189H18.2869V29.7915V29.7901Z" fill="#252323"/>
<path fill-rule="evenodd" clip-rule="evenodd" d="M23.4004 28.2864V34.927H25.4471V32.2126H28.0038V30.8735H25.4471V29.7127H28.4423V28.2864H23.4004Z" fill="#252323"/>
</g>
<defs>
<clipPath id="clip0_1169_2376">
<rect width="38" height="51" fill="white"/>
</clipPath>
</defs>
</svg>
