<svg width="42" height="32" viewBox="0 0 42 32" fill="none" xmlns="http://www.w3.org/2000/svg">
<path d="M37.0449 0L4.81057 0.0351136C3.52307 0.0351136 2.3175 0.538409 1.40455 1.45136C0.503296 2.35261 0 3.56989 0 4.84568L0.0234091 26.464C0.0234091 29.1209 2.18875 31.2746 4.84568 31.2746H6.50773L37.08 31.2394C38.3675 31.2394 39.5731 30.7361 40.486 29.8232C41.399 28.9102 41.8906 27.7047 41.8906 26.4172V5.22023C41.8906 2.44625 39.6316 0 37.0449 0ZM28.0909 17.2525L17.0769 23.3155C16.796 23.4676 16.48 23.5496 16.1523 23.5496C15.8128 23.5496 15.4734 23.4559 15.1808 23.2803C14.5956 22.9409 14.2444 22.3089 14.2444 21.63V9.50409C14.2444 8.82523 14.6073 8.20489 15.1808 7.85375C15.7543 7.51432 16.5034 7.50262 17.0769 7.83034L28.0909 13.8933C28.6996 14.2327 29.0858 14.8648 29.0858 15.5671C29.0858 16.2693 28.7113 16.9014 28.0909 17.2408V17.2525Z" fill="#BD1A2C"/>
</svg>
